{"title":"Kylie Minogue Sexercize VP9 1080P (NOT BS YOUTUBE RIP)","uid":11233467,"size":301081082,"categoryP":"video","categoryS":"music_videos","magnet":"?xt=urn:btih:7698e548bfe2f40292c0012a55cf2ed81919bd76&amp;dn=Kylie+Minogue+Sexercize+VP9+1080P+%28NOT+BS+YOUTUBE+RIP%29&amp;tr=udp%3A%2F%2Ftracker.openbittorrent.com%3A80&amp;tr=udp%3A%2F%2Fopen.demonii.com%3A1337&amp;tr=udp%3A%2F%2Ftracker.coppersurfer.tk%3A6969&amp;tr=udp%3A%2F%2Fexodus.desync.com%3A6969","seeders":1,"leechers":1,"uploader":"studio76","files":-1,"time":1413565510,"description":"Kylie Minogue Sexercize 1080P VP9\n &lt;a href=&quot;\nhttp://bayimg.com/DaCfkaagB&quot; rel=&quot;nofollow&quot; target=&quot;_NEW&quot;&gt;\nhttp://bayimg.com/DaCfkaagB&lt;/a&gt;\n\n[img]http://imagizer.imageshack.us/v2/2560x1750q100/903/sP8ygP.jpg[/img]\n\n\n[b]Source file 4GB VS VP9 VS Youtube[/b]\n &lt;a href=&quot;\nhttp://bayimg.com/dacfjaaGb&quot; rel=&quot;nofollow&quot; target=&quot;_NEW&quot;&gt;\nhttp://bayimg.com/dacfjaaGb&lt;/a&gt; &lt;a href=&quot;\nhttp://bayimg.com/DAcFIAAgb&quot; rel=&quot;nofollow&quot; target=&quot;_NEW&quot;&gt;\nhttp://bayimg.com/DAcFIAAgb&lt;/a&gt;\n\n[img]http://imagizer.imageshack.us/v2/1920x1080q100/537/bJkRSO.png[/img]\n\n[img]http://imagizer.imageshack.us/v2/1920x1080q100/537/XYCE4J.png[/img]\n\n[img]http://imagizer.imageshack.us/v2/1920x1080q100/633/bkGv3V.png[/img]\n\n[b]Just Images[/b] \n\n[img]http://imagizer.imageshack.us/v2/1920x1080q100/538/U6JMTR.png[/img]\n\n[img]http://imagizer.imageshack.us/v2/1920x1080q100/742/ScCmRt.png[/img]\n\nHere is the album link  &lt;a href=&quot;\nhttps://imageshack.com/a/M1Zz/1&quot; rel=&quot;nofollow&quot; target=&quot;_NEW&quot;&gt;\nhttps://imageshack.com/a/M1Zz/1&lt;/a&gt;\n\nMedia Information \n\n[code]Format : Matroska\nFormat version : Version 4 / Version 2\nFile size : 269 MiB\nDuration : 2mn 57s\nOverall bit rate mode : Variable\nOverall bit rate : 12.7 Mbps\nWriting application : Lavf56.7.102\nWriting library : Lavf56.7.102\n\nVideo\nID : 1\nFormat : VP9\nCodec ID : V_VP9\nDuration : 2mn 57s\nBit rate : 12.2 Mbps\nWidth : 1 920 pixels\nHeight : 1 080 pixels\nDisplay aspect ratio : 16:9\nFrame rate mode : Constant\nFrame rate : 25.000 fps\nBits/(Pixel*Frame) : 0.235\nStream size : 258 MiB (96%)\nWriting library : Lavc56.1.102 libvpx-vp9\nLanguage : English\nDefault : Yes\nForced : No\nEncoded date : UTC 2014-03-18 22:17:52\nHANDLER_NAME : Apple Alias Data Handler\nTIMECODE : 01:00:00:00\n\nAudio\nID : 2\nFormat : Vorbis\nFormat settings, Floor : 1\nCodec ID : A_VORBIS\nDuration : 2mn 57s\nBit rate mode : Variable\nBit rate : 256 Kbps\nChannel(s) : 2 channels\nSampling rate : 48.0 KHz\nCompression mode : Lossy\nStream size : 5.42 MiB (2%)\nWriting library : libVorbis (TurpakÃƒÂ¤rÃƒÂ¤jiin) (20140122 (TurpakÃƒÂ¤rÃƒÂ¤jiin))\nLanguage : English\nDefault : Yes\nForced : No\nEncoded date : UTC 2014-03-18 22:17:52\nHANDLER_NAME : Apple Alias Data Handler\nWriting application : Lavc56.1.102[/code]\n\n\nONLY HIGH QUALITY RELEASES\nSharing is caring\n[b]!!!If you like it, buy it!!![/b]\nfollow on twitter: Studio76HD\n\nplease visit also:\nMy internet speed \n[img]http://www.speedtest.net/result/2342625460.png[/img]\nYou will not have any porble downloading this torrent \n[image=l7bzYTt3O8]","torrent":{"xt":"urn:btih:7698e548bfe2f40292c0012a55cf2ed81919bd76","amp;dn":"Kylie+Minogue+Sexercize+VP9+1080P+%28NOT+BS+YOUTUBE+RIP%29","amp;tr":["udp%3A%2F%2Ftracker.openbittorrent.com%3A80","udp%3A%2F%2Fopen.demonii.com%3A1337","udp%3A%2F%2Ftracker.coppersurfer.tk%3A6969","udp%3A%2F%2Fexodus.desync.com%3A6969"],"infoHash":"7698e548bfe2f40292c0012a55cf2ed81919bd76","infoHashBuffer":{"type":"Buffer","data":[118,152,229,72,191,226,244,2,146,192,1,42,85,207,46,216,25,25,189,118]},"announce":[],"urlList":[]}}